# xmcd CD database file
#
# Track frame offsets:
#	150
#	21357
#	35571
#	50395
#	72252
#	88649
#	103359
#	115662
#	128026
#	138075
#	150772
#	162964
#	176598
#	193330
#	208612
#
# Disc length: 2972 seconds
#
# Revision: 1
# Processed by: cddbd v1.5.2PL0 Copyright (c) Steve Scherf et al.
# Submitted via: CDex 1.70beta2
#
DISCID=ca0b9a0f
DTITLE=Various Artist - Rhythm and Blues - CD 1
DYEAR=2007
DGENRE=Blues
TTITLE0=Big Bill Broonzy/Back Water Blues
TTITLE1=Muddy Waters/Smokestak Lightin'
TTITLE2=John Lee Hooker/I'll Never Trust Your Love Again
TTITLE3=Mel Walker/Got Those City Hall Blues
TTITLE4=Amos Wilburn/It's Too Late To Cry Baby
TTITLE5=Pee Wee Crayton/Blues Blues
TTITLE6=Sugar Pie De Santo/Use What You Got
TTITLE7=Jimmy McCracklin/I'm To Blame
TTITLE8=Buddy Guy/One Hundred Dollar Bill
TTITLE9=Jimmy Rogers/Walking By Myself
TTITLE10=Lowell Fulson/Trouble With The Blues
TTITLE11=Little Walter/You're So Fine
TTITLE12=Richard Berry/Those Pawnshop Blues
TTITLE13=Eddie Vinson/My Baby's Down And Out
TTITLE14=Sonny Thompson/My Buddy Pete's Blues
EXTD=YEAR: 2007
EXTT0=
EXTT1=
EXTT2=
EXTT3=
EXTT4=
EXTT5=
EXTT6=
EXTT7=
EXTT8=
EXTT9=
EXTT10=
EXTT11=
EXTT12=
EXTT13=
EXTT14=
PLAYORDER=
